<?xml version="1.0" encoding="UTF-8"?>
<svg xmlns="http://www.w3.org/2000/svg" xmlns:xlink="http://www.w3.org/1999/xlink" width="20px" height="24px" viewBox="0 0 9 14" version="1.1">
<g id="surface1">
<path style=" stroke:none;fill-rule:nonzero;fill:#3d4147;fill-opacity:1;" d="M 8.734375 9.882812 C 9.085938 10.222656 9.085938 10.777344 8.734375 11.121094 C 8.5625 11.289062 8.332031 11.375 8.101562 11.375 C 7.871094 11.375 7.640625 11.289062 7.464844 11.117188 L 4.5 8.238281 L 1.535156 11.117188 C 1.359375 11.289062 1.128906 11.375 0.898438 11.375 C 0.667969 11.375 0.441406 11.289062 0.265625 11.117188 C -0.0859375 10.777344 -0.0859375 10.222656 0.265625 9.878906 L 3.226562 7 L 0.265625 4.117188 C -0.0859375 3.777344 -0.0859375 3.222656 0.265625 2.878906 C 0.617188 2.539062 1.183594 2.539062 1.535156 2.878906 L 4.5 5.765625 L 7.464844 2.882812 C 7.816406 2.539062 8.386719 2.539062 8.738281 2.882812 C 9.089844 3.222656 9.089844 3.777344 8.738281 4.121094 L 5.773438 7 Z M 8.734375 9.882812 "/>
</g>
</svg>
